<svg xmlns="http://www.w3.org/2000/svg" viewBox="0 0 1214 848" width="848" height="592"><defs><linearGradient id="P" gradientUnits="userSpaceOnUse"></linearGradient><linearGradient id="g1" x2="1" href="#P" gradientTransform="matrix(579.216,0,0,50.854,351.019,108.424)"><stop stop-color="#40d5e6"></stop><stop offset=".63" stop-color="#003495"></stop><stop offset="1" stop-color="#003495"></stop></linearGradient></defs><style>.a{fill:#003495}.b{fill:#0541b1}.c{fill:#7289b3}.d{fill:url(#g1)}.e{fill:#2658b5}.f{fill:#dfe1e8}.g{fill:#eef0f7}.h{fill:#3c4145}.i{fill:#eea886}.j{fill:#e55353}.k{fill:#a77860}.l{fill:#bd4444}.m{fill:#323657}.n{fill:#706865}.o{fill:#b59074}.p{fill:#918783}.q{fill:#1d3b54}.r{fill:#cf8c6c}.s{fill:#eb4747}.t{fill:#db9c7c}.u{fill:#152c3d}.v{fill:#eddad3}.w{fill:#b5deff}.x{fill:#bfb2ac}.y{fill:#d9c7c1}.z{fill:#eea987}.A{fill:#e8734d}.B{fill:#c78d71}.C{fill:#5073ab}.D{fill:#f5f7ff}.E{fill:#78c2ff}.F{fill:#1a598c}.G{fill:#2273b5}.H{fill:#4da8f2}.I{fill:#f3f3f3}.J{fill:#e2d2ca}.K{fill:#ccbdb7}.L{fill:#4667a8}.M{fill:#ffc05c}.N{fill:#424773}.O{fill:#292c47}.P{fill:#3a3f47}.Q{fill:#5e5854}.R{fill:#5f8be3}.S{fill:#cecfd6}.T{fill:#5c5552}.U{fill:#2e436e}.V{fill:#949494}</style><path fill-rule="evenodd" class="a" d="m1101.3 127.1v29.5l-13.4 2.7c-1.6 6.4-4.1 12.4-7.4 17.9l7.6 11.3-10.5 10.5-10.5 10.5-11.3-7.6c-5.5 3.3-11.5 5.8-17.9 7.4l-2.6 13.4h-29.6l-2.7-13.4c-6.4-1.6-12.4-4.1-17.9-7.4l-11.3 7.6-10.5-10.5-10.4-10.5 7.5-11.3c-3.2-5.5-5.8-11.5-7.4-17.9l-13.3-2.7v-29.5l13.3-2.7c1.6-6.4 4.2-12.4 7.4-17.9l-7.5-11.3 10.4-10.5 10.5-10.4 11.3 7.5c5.5-3.3 11.5-5.8 17.9-7.4l2.7-13.4h29.6l2.6 13.4c6.4 1.6 12.4 4.1 17.9 7.4l11.3-7.5 10.5 10.4 10.5 10.5-7.6 11.3c3.3 5.5 5.8 11.5 7.4 17.9zm-28.9 14.8c0-28.7-23.2-51.9-51.9-51.9-28.6 0-51.8 23.2-51.8 51.9 0 28.6 23.2 51.8 51.8 51.8 28.7 0 51.9-23.2 51.9-51.8z"></path><path fill-rule="evenodd" class="a" d="m963.2 51.4v13.6l-6.1 1.2c-0.7 2.9-1.9 5.7-3.4 8.2l3.5 5.2-4.8 4.8-4.8 4.8-5.2-3.5c-2.5 1.5-5.3 2.7-8.2 3.4l-1.2 6.1h-13.6l-1.2-6.1c-2.9-0.7-5.7-1.9-8.2-3.4l-5.2 3.5-4.8-4.8-4.8-4.8 3.5-5.2c-1.5-2.5-2.7-5.3-3.4-8.2l-6.2-1.2v-13.6l6.2-1.2c0.7-2.9 1.9-5.7 3.4-8.2l-3.5-5.2 4.8-4.8 4.8-4.8 5.2 3.5c2.5-1.5 5.3-2.7 8.2-3.4l1.2-6.1h13.6l1.2 6.1c2.9 0.7 5.7 1.9 8.2 3.4l5.2-3.5 4.8 4.8 4.8 4.8-3.5 5.2c1.5 2.5 2.7 5.3 3.4 8.2zm-13.3 6.8c0-13.2-10.6-23.8-23.7-23.8-13.2 0-23.8 10.6-23.8 23.8 0 13.1 10.6 23.7 23.8 23.7 13.1 0 23.7-10.6 23.7-23.7z"></path><path class="b" d="m604.2 713.5h72.8v-221h-72.8z"></path><path class="a" d="m358.4 598.9h564.5c17.6 0 31.9-14.3 31.9-31.9v-379.4c0-17.7-14.3-32-31.9-32h-564.5c-17.7 0-32 14.3-32 32v379.4c0 17.6 14.3 31.9 32 31.9z"></path><path class="c" d="m351 529.5h579.2v-421.1h-579.2z"></path><path class="d" d="m351 159.3h579.2v-50.9h-579.2z"></path><path class="e" d="m620.4 561.3c0 11.2 9 20.2 20.2 20.2 11.2 0 20.3-9 20.3-20.2 0-11.2-9.1-20.3-20.3-20.3-11.2 0-20.2 9.1-20.2 20.3z"></path><path class="f" d="m546.5 210.5h173c3.9 0 7.1-3.1 7.1-7v-1c0-3.9-3.2-7.1-7.1-7.1h-173c-3.9 0-7 3.2-7 7.1v1c0 3.9 3.1 7 7 7z"></path><path class="f" d="m546.5 237.7h173c3.9 0 7.1-3.2 7.1-7v-1c0-3.9-3.2-7.1-7.1-7.1h-173c-3.9 0-7 3.2-7 7.1v1c0 3.8 3.1 7 7 7z"></path><path class="f" d="m546.5 264.9h173c3.9 0 7.1-3.2 7.1-7.1v-1c0-3.8-3.2-7-7.1-7h-173c-3.9 0-7 3.2-7 7v1c0 3.9 3.1 7.1 7 7.1z"></path><path fill-rule="evenodd" class="f" d="m627.8 499.8h-217.1c-18.1 0-32.9-14.7-32.9-32.8v-132.1c0-18.1 14.8-32.8 32.9-32.8h217.1c18.1 0 32.8 14.7 32.8 32.8v132.1c0 18.1-14.7 32.8-32.8 32.8zm-217.1-193.6c-15.9 0-28.7 12.9-28.7 28.7v132.1c0 15.8 12.8 28.7 28.7 28.7h217.1c15.8 0 28.7-12.9 28.7-28.7v-132.1c0-15.8-12.9-28.7-28.7-28.7z"></path><path class="f" d="m427.8 351.9h182.8c8 0 14.5-6.5 14.5-14.5v-2.8c0-8-6.5-14.5-14.5-14.5h-182.8c-8 0-14.5 6.5-14.5 14.5v2.8c0 8 6.5 14.5 14.5 14.5z"></path><path class="a" d="m804.3 721.9h-327.4v-16.7h327.4z"></path><path class="g" d="m865.1 345.5c0 17.3-9.4 32.5-23.3 40.7q-4.3 2.5-9 4-0.4 0.2-0.8 0.3c-4.5 1.4-9.2 2.1-14 2.1-7.6 0-14.7-1.7-21-4.9-15.5-7.7-26.2-23.7-26.2-42.2 0-26 21.1-47.1 47.2-47.1 26 0 47.1 21.1 47.1 47.1z"></path><path class="h" d="m806.7 340.5c0 0-3.2-20.8 14-20.4 17.3 0.4 17.1 10.7 16.7 20.9-0.3 10.2-6.9 9.4 0.6 23.7 7.4 14.2-6.5 14.2-6.5 14.2l-10.8-14.9z"></path><path class="i" d="m818.8 322.1c0 0-11.6 1.8-12.1 18.4-0.5 16.6 3.2 20.2 13.4 16.7 10.2-3.5 13.4-20.8 13.7-23.5 0.2-2.7 0.8-13.6-15-11.6z"></path><path class="j" d="m839.4 379.8c0 5-2.7 8.3-6.6 10.4q-0.4 0.2-0.8 0.3c-4.5 1.4-9.2 2.1-14 2.1-7.6 0-14.7-1.7-21-4.9-1.4-2.8 0.7-6.8 4.8-13 2.9-4.3 5.7-8.6 10.5-10.7 7.1-1.1 14.7-1.2 20 1.8 4.2 2.4 7 6.7 7.1 14z"></path><path class="j" d="m804.1 374.4l-5.3 8.5c0 0 0.3-1.3 0.9-5q0.2-1.1 0.4-2.4 0.1-0.4 0.2-0.8c2.3-5.3 9.4-9.2 9.7-9.4z"></path><path class="i" d="m841.8 386.2q-4.3 2.5-9 4-0.4 0.2-0.8 0.3c-1.2-3.1-2.3-5.7-2.5-6.4q-0.1-0.3-0.4-1.1c-1-2.3-3.1-7.6-3.2-11.7 0-2.6 0.9-4.8 3.5-5.4q1.6-0.3 2.9-0.1c2.9 0.5 4.7 3.2 5.6 5.6q0 0 0.1 0.1c0.8 2 1 3.8 1 3.8q0 0 0.2 0.5c0.1 0.6 0.4 1.9 0.9 3.5 0.4 1.9 1 4.3 1.7 6.9z"></path><path class="i" d="m826.7 349.7c-1.1 1.9-2.1 13.8-2.1 13.8 0 0-14.3 5.4-12.9 2.3 0.7-1.3 0.9-3.1 0.9-4.7 0-1.2-0.1-2.3-0.1-2.9q-0.1-0.5-0.1-0.5c0 0 15.3-9.9 14.3-8z"></path><path class="h" d="m814.1 334c0 0 6 9.7 11.4 13.6 5.5 3.8 2.7 6.9 2.7 6.9 0 0 14.3-30 0.7-32-13.5-2.1-21.8-2.3-22.2 18 0 0 6.2-6.7 7.4-6.5z"></path><path class="k" d="m820.6 357c-2.2 3.2-8 4.1-8 4.1q0 0 0 0c0-1.2-0.1-2.3-0.1-2.9 3.7 0.7 8.1-1.2 8.1-1.2z"></path><path class="l" d="m800.3 374.6q0 0 0 0c0 0-0.3 0.7-0.6 3.3l2.1-3.2c0 0 3.8-5.4 5.1-6.8 1.3-1.4 3.1-2.6 3.1-2.6 0 0-7.5 3.5-9.7 9.3z"></path><path class="j" d="m828.7 382.7c0 0 9.2-3.6 11.9-3.8 0 0-1.8-14.8-10.8-13.2-9.1 1.6-1.1 17-1.1 17z"></path><path class="i" d="m812.3 364c0 0-6.7 10.4-4.4 11.3 2.3 0.9 14.6-1.2 19.8-11.1 0 0-7.8-4-15.4-0.2z"></path><path class="m" d="m316.6 598.2l-73.5 0.6v-6.8l73.4-0.5z"></path><path class="m" d="m338.1 528l-21.5 70.2-6.4-2 21.5-70.2z"></path><path class="n" d="m448.6 783.5h-5.8v-176.5h5.8z"></path><path class="o" d="m227.8 607h251.9v-10.1h-251.9z"></path><path class="n" d="m260 783.5h5.8v-176.5h-5.8z"></path><path class="p" d="m151.8 754.6h-6.9v-87h6.9z"></path><path class="q" d="m234.8 744.3c0 0 0.1 3.9 1.4 8.3 0.9 3.3 2.7 16 5 17.8 2.4 1.8 10 6.5 8.8 11.3-1.1 4.9-2 8.3-10.2 5.4-8.1-2.9-13.6-4.5-15.2-11.7-1.5-7.2-6-13.7-6-13.7l-5.9 14.7-3.1-1.3c0 0 4.7-15.8 4.3-17.2-0.4-1.4 2.1-14 12-17.2 9.9-3.1 8.9 3.6 8.9 3.6z"></path><path class="q" d="m289.4 748.9c0 0 1.5 3.6 4.3 7.3 2.1 2.7 8.5 13.8 11.4 14.6 2.8 0.7 11.6 2.3 12.4 7.2 0.7 4.9 1.1 8.4-7.5 8.8-8.7 0.4-14.3 0.9-18.5-5.2-4.1-6.1-10.7-10.5-10.7-10.5v15.9h-3.3c0 0-1.6-16.5-2.5-17.7-0.9-1.1-3.2-13.8 4.8-20.4 8-6.5 9.6 0 9.6 0z"></path><path class="i" d="m201.5 533.9c0 0 1.9-6.8 2.1-7.7 0.2-0.9 2-2.7 4.3-4.5 2.2-1.9 6.1-3.4 6.6-3.2 0.5 0.1 1 0.1 1.8 1.1 0.8 1 0.9 2.3 0.9 2.3 0 0 1.6 0.8 1.6 2.4 0 0 1.4 0.8 1.2 2.7 0 0 1.3 0.8 1 2.1 0 0-1.8 1.8-2.3 2.7-0.5 0.8-4.5 4.2-8.9 6.9 0 0-5.6 4.1-8.3-4.8z"></path><path class="r" d="m209.8 528.5c0 0 0.9 2.8 0.7 3.8-0.2 0.9 6.5 1 6.5 1 0 0-3.6-5.7-7.2-4.8z"></path><path class="q" d="m134.1 545.6c2.7-4.4 6.3-6.4 17.8 1.6 11.6 7.9 8.9 6.4 11.6 8.9 2.8 2.5 14.8 8.8 14.8 8.8 0 0 7.1-7 10.5-12 3.8-5.6 11.7-20.6 11.7-20.6l11.2 8.3c0 0-21.7 39.3-26.2 42.2-4.5 3-18.2-1.9-25.3-4.9-7.1-3-14.6-6.9-17.8-7.7-3.3-0.8-15.4-13.1-8.3-24.6z"></path><path class="s" d="m212.5 525l-2.1-0.5 5.5-24.6 2 0.5z"></path><path class="t" d="m213.9 519c0 0-5.7 4.8-5 5.8 0.7 1 1.5 0.9 1.5 0.9l-1.4 3.1c0 0 0.2 2.5 2.9 1.6 0 0-0.1 2.4 2.5 1.1 0 0 0.6 1.6 1.9 1.2 1.2-0.3 4.7-3.6 4.7-3.6 0 0 0.5-1-1-2.1 0 0 0.3-1.8-1.2-2.7 0 0 0.1-1.4-1.6-2.4 0 0 0-3.2-2.7-3.4 0 0-0.4 0.3-0.6 0.5z"></path><path class="i" d="m203.7 526.2c0 0 3.7-3.4 6.6-4.3 0.7-0.2 1.3-0.3 1.8 0.2 0.4 0.5 0.2 1.8-1.3 3.4-1.6 1.5-2.9 4.3-2.9 4.3 0 0-2.1 1.1-4.2-3.6z"></path><path class="u" d="m187.7 569.5c0 0 2.3-8.2-0.4-14.6 0 0 1.1 6.6-1.8 11.3-2.1 3.4 2.2 3.3 2.2 3.3z"></path><path class="v" d="m228.9 570.7c0 0 6-45 16.6-64.6h-15.5c0 0-17.5 30.7-14.2 61.8z"></path><path class="i" d="m232.6 537c0 0 1.8-3.3 2.2-4.4 0.4-1 2.2 0.8 1.9 2.2-0.2 1.4-4.1 2.2-4.1 2.2z"></path><path class="i" d="m246.4 544.6c0 0-0.5 1.6-1 2.2 0 0-1.1 1-1.8 1.8q-0.4 0.4-0.6 0.6c-0.4 0.7-1.3 2.3-2.8 3.5-1.6 1.3-7.5 5.1-7.5 5.1l-4.2-4.5-3.4-3.4c0 0 2.9-10.7 4.2-12q0.2-0.2 0.4-0.4c1.2-1 2.6-1.3 3.3-1.7 0.2-0.2 2.9-1.7 3.8-1.4 1.1 0.5 1.8 1.3 2 2.2 0 0 2.3 1 3 2.5 0 0 2.2 0.8 2.6 3 0 0 2.1 1.1 2 2.5z"></path><path class="i" d="m274 660.8c0 0-10.3 23.2-17.7 39.7-1.2 2.8-2.3 5.4-3.3 7.6-1.2 2.7-2.2 4.9-2.9 6.4-4.6 10.5-16.2 33.5-16.2 33.5 0 0-8.6 0.3-9.1-7 0 0 8.3-16 8.3-27.2 0-11.1 1.5-44.1 12.2-51.2 13-8.7 21.5-10.4 28.7-1.8z"></path><path class="i" d="m178.8 616.8c0 0 2.2 2.2 4 2.7 1.9 0.5 32.6 2.8 46.8 7.5 14.2 4.7 33.1 7.7 36.6 11.7 3.5 4 9.3 26 9.1 30.2-0.1 4.2 12.5 74.6 14.1 80 0.8 3-11.4 1.8-11.4 1.8 0 0-17.5-41.5-21.2-49.2-6.8-14.1-7.2-31.4-9.7-34.1-2.5-2.7-30.4-8.7-46.4-8.7-16 0-52 1.4-55.8-0.8-3.8-2.2-27.9-18-17.9-39.3 10.1-21.2 51.8-1.8 51.8-1.8z"></path><path class="q" d="m248.2 632l-25.5 48.9c0 0-7.6-18.1-21-21.2-13.4-3.2-66.7-1.5-66.7-1.5 0 0-24.5-31-3.5-47.2 20.9-16.3 45.4 2.5 45.4 2.5 0 0 5.1 5.5 7.5 5.6 17.8 0.9 36.8 4.2 63.8 12.9z"></path><path class="i" d="m305.1 770.8c0 0-7.8 1.9-10.7 0-3-2-13.1-19-16.4-20.1 0 0 3.2-6.5 11.4-1.8 0 0 13.5 19 15.7 21.9z"></path><path class="i" d="m241.3 770.4c-0.1 0-8-1.1-10-4-2-2.9-5-22.5-7.7-24.7 0 0 5.4-4.9 11.2 2.6 0 0 5.5 22.7 6.4 26.1z"></path><path class="i" d="m160.5 463.1c6.1-0.3 19.6 2.8 21.7 18.9 0 0-0.5 4.4-1.5 7.8-1.1 3.5 2 13.6 1.2 14.1-0.8 0.5-4.1 1.1-4.1 1.1 0 0-3.6 11.1-7.5 11-3.9-0.1-18.6-3.2-25.5-16.9-6.9-13.7-9-34.8 15.7-36z"></path><path class="i" d="m165.1 510.9c0 0-0.5 1.6-1 3.9-0.3 1.2-0.6 2.5-0.9 4-0.7 4-1.1 8.7 0 11.9 0 0-8.6 2.9-15.4-9.2 0 0 2.9-13-0.9-21-3.7-7.9 18.2 10.4 18.2 10.4z"></path><path class="q" d="m182.2 482c0 0-9.4 8.5-19.3 7.8-10.1-0.7-16.6 11.9-16.6 11.9 0 0-15-18.8-2.9-34 12.1-15.2 40.9-4.5 38.8 14.3z"></path><path class="i" d="m158.4 489.7c-0.1-1.9-2.2-4.7-5.3-2.1-3.2 2.6 1 11.6 3.6 10.7 2.5-0.9 1.7-6.6 1.7-8.6z"></path><path class="k" d="m164.1 514.8c-0.3 1.2-0.6 2.5-0.9 4-7.9-5.1-11.9-11.2-11.9-11.2 4.5 4.1 12.8 7.2 12.8 7.2z"></path><path class="q" d="m187.3 561.1c-1.8 8.4-6.6 8.8-6.3 15 0.3 6.2 2.2 6.7-1 16.4-0.6 1.8-1.1 3.8-1.5 5.8q-0.1 0.4-0.1 0.7-0.3 1.7-0.6 3.4c-0.2 2.1-0.5 4.1-0.6 5.9-0.4 4.8 3.2 8.5 3.2 8.5 0 0-31.3 18.8-52.8 16.1 0 0 5.6-23.3 8.7-31.3 3-8.1 2.1-45.1-0.2-53.1-3.3-11.7 3.4-29.3 12.4-31.6l14.1 6.5c0 0 14.2 16.9 17.4 19.5 3.1 2.5 9.1 9.7 7.3 18.2z"></path><path class="q" d="m140.8 526.8c4-3.3 9.7-9 18.1 2.3 8.4 11.2 14.5 18.4 16.3 21.6 1.8 3.3 17.6 26.1 17.6 26.1 0 0 8.4-7.8 13.1-11.5 5.4-4.1 20.2-19.4 20.2-19.4l9.7 10.8c0 0-33.8 37.4-39 38.7-5.2 1.4-19.8-11.8-25.6-16.9-5.8-5.1-22-23.6-24.8-25.4-2.8-1.8-16-17.7-5.6-26.3z"></path><path class="k" d="m256.3 700.5c-1.2 2.8-2.3 5.4-3.3 7.6-3.8-12.1-3.5-32.5-3.5-32.5 2.3 14.2 6.8 24.7 6.8 24.9z"></path><path class="w" d="m93.3 658.2h108.4v11.9h-108.4z"></path><path class="w" d="m149.7 620.2c0 0-2.7 11 10.2 13.5 12.8 2.5 28.6 5.7 28.6 25.6h-44.6z"></path><path class="i" d="m215.9 499.9l1.8-3.4 0.2 3.9z"></path><path class="w" d="m93.3 670.1l-37.8-159.2c0 0 68.4-10.7 76.6 20.1 8.2 30.7 21.6 122.1 37.9 127.7 16.3 5.7-76.7 11.4-76.7 11.4z"></path><path class="u" d="m181.4 587.2c0 0-0.7 2.9-1.4 5.3l-16.7-21.6z"></path><path class="q" d="m139.7 488.2c0 0 6.5 17.4 4.8 22.1 0 0 10.2-4.4 8.4-15.8-1.9-11.4-13.2-6.3-13.2-6.3z"></path><path class="q" d="m163.4 524.4v-3.5l-14.6-7.1-5.1 5.8z"></path><path class="x" d="m215.2 777c0 3.2-2.5 5.7-5.6 5.7-3.2 0-5.7-2.5-5.7-5.7 0-3.1 2.5-5.6 5.7-5.6 3.1 0 5.6 2.5 5.6 5.6z"></path><path class="p" d="m87.7 771.4l1.4 4 60.6-18.7-2.9-8.2z"></path><path class="p" d="m209.6 771.4l-1.5 4-60.6-18.7 2.7-8.7z"></path><path class="p" d="m166.9 775v4.7l-19.4-23 2.7-8.7z"></path><path class="x" d="m167.4 777c0 3.2-2.6 5.7-5.7 5.7-3.1 0-5.7-2.5-5.7-5.7 0-3.1 2.6-5.6 5.7-5.6 3.1 0 5.7 2.5 5.7 5.6z"></path><path class="x" d="m93.3 777c0 3.2-2.5 5.7-5.6 5.7-3.1 0-5.7-2.5-5.7-5.7 0-3.1 2.6-5.6 5.7-5.6 3.1 0 5.6 2.5 5.6 5.6z"></path><path class="g" d="m882.5 208c0 15-5.4 28.8-14.4 39.4q-3.1 3.8-6.8 7-1.1 0.9-2.2 1.8-1.2 0.9-2.5 1.9c-8.1 5.7-17.6 9.5-27.9 10.8q-2.7 0.3-5.5 0.4-1 0-2 0-3 0-5.9-0.3-3.2-0.3-6.4-0.9c-9.3-1.9-17.8-5.9-25-11.4q-3.3-2.6-6.2-5.5-0.6-0.6-1.2-1.2-2-2.1-3.8-4.5c-8.1-10.4-12.8-23.4-12.8-37.5 0-33.9 27.4-61.3 61.3-61.3 33.8 0 61.3 27.4 61.3 61.3z"></path><path class="y" d="m861.1 241.8l-4.5 16.3c-8.1 5.7-17.6 9.5-27.9 10.8q-2.7 0.3-5.5 0.4-1 0-2 0-3 0-5.9-0.3-3.2-0.3-6.4-0.9c-9.3-1.9-17.8-5.9-25-11.4-0.9-5.4-1.8-11.4-2.7-16.9 4.5-1.7 18.9-6.6 27.9-9.6q0.2-0.1 0.4-0.1 0.3-0.2 0.6-0.2 0.8-0.3 1.5-0.6 0.8-0.2 1.5-0.4c1.8-0.7 3.1-1.1 3.6-1.3q0 0 0 0 0.2 0 0.2 0h0.1l12.2 0.9 2 0.1 0.6 0.1q0 0 0.3 0.1c0.7 0.1 2.9 0.7 5.7 1.6q0 0 0 0c7.2 2.2 18.9 6.4 23.3 11.4z"></path><path class="z" d="m824.4 177.5c0 0 14.6 2.5 12.1 25.4-2.5 22.8-15.4 20.8-16.2 20.8-0.9-0.1-13 0.3-13.6-27.7 0 0-0.2-20.7 17.7-18.5z"></path><path class="z" d="m830.8 217c0 0-0.5 9.5 0.4 11.5 0.8 2.1-11.8 8.5-19.6 1.2 0 0 1.6-10.3 1.1-14-0.5-3.6 18.1 1.3 18.1 1.3z"></path><path class="z" d="m836.8 196.4c0 0 1.6-1.7 2.2 0.1 0.6 1.7-2.6 9.4-2.4 9.7 0 0-0.3 0.7-0.7 0.3-0.4-0.3 0.9-10.1 0.9-10.1z"></path><path class="z" d="m806.8 195.8c0 0-1.5-1.8-2.2-0.1-0.6 1.8 1.7 9.5 2 9.9 0 0 0.5 0.8 0.9 0.5 0.4-0.4-0.7-10.3-0.7-10.3z"></path><path class="A" d="m837.7 194.5c-0.5 3.1-1 5.4-1 5.4l-2.1 2.8c0 0 0.1-6.1-0.2-7.1-0.1-0.4-0.2-1-0.4-1.7-0.2-1.2-0.5-2.5-0.7-2.9-0.2-0.7-12.5-4.3-23.4 0.7 0 0 0.1 1 0.1 2 0 1.3-0.1 2.6-0.7 2.8-1 0.4-0.6 7.2-0.6 7.2l-1.7-1.9c0 0-0.5-3.6-1-7.7q0 0 0 0-0.1-1.4-0.3-2.9c-0.2-4.1 0.2-11.6 5.5-16 3.6-1.5 9.4-2.8 19 0.1 0 0 2.2 0.2 2.8 0.8 6 6.6 4.7 18.4 4.7 18.4z"></path><path class="B" d="m813.7 220.6c0 0 2.3 3.3 7.7 3.1 5.4-0.1 7.8-2.9 7.8-2.9 0 0-2.6 5.4-7.8 5.3-5.2-0.1-7.7-5.5-7.7-5.5z"></path><path class="z" d="m810.1 229.8c0 0 3.9 6.9 11.3 7.5 4.8 0.4 8.8-5.6 10.7-8.5 0 0-10.5-4.5-22 1z"></path><path class="v" d="m830.8 226.7c0 0-3 3.9-9.4 8.1l4 6 6.7-12z"></path><path class="v" d="m811.9 227.6c0 0 3.8 4.7 9.5 7.2l-4.3 6.2-7.6-11z"></path><path class="C" d="m821.4 234.8l3.4 5.1c0 0-3.5 2-6.8-0.1z"></path><path class="m" d="m865 240.9q0 0-0.1 0.3c-0.3 1.3-1.8 6.4-3.6 13.2q-1.1 0.9-2.2 1.8-1.2 0.9-2.5 1.9c-8.1 5.7-17.6 9.5-27.9 10.8 0.9-21.3 3.4-40.1 3.4-40.1q3 0.8 5.7 1.6 0 0 0 0c15.6 4.4 23.5 8.4 26.2 9.8q0 0.1 0 0.1 1.1 0.6 1 0.6z"></path><path class="m" d="m808.9 268.1c-9.3-1.9-17.8-5.9-25-11.4q-3.3-2.6-6.2-5.5-0.6-0.6-1.2-1.2c-1-4.5-1.7-7.5-1.8-7.7 0 0 7.6-5 34.4-12.1q0 0 0 0c0 0.6 0.1 17.8-0.2 37.9z"></path><path class="C" d="m823.4 240.5c-0.3 5.6-0.3 16.4-0.2 28.8q-1 0-2 0-3 0-5.9-0.3c1.2-15.2 3.2-24.8 4.1-28.5 0.3-1.3 0.5-1.9 0.5-1.9l3.6 0.6q-0.1 0.6-0.1 1.3z"></path><path class="m" d="m868.1 247.4q-3.1 3.8-6.8 7-1.1 0.9-2.2 1.8l4.9-16q0 0.1 0 0.1 0.5 0.3 0.9 0.9c1 1.3 2.1 3.4 3.2 6.2z"></path><path class="m" d="m777.7 251.2q-0.6-0.6-1.2-1.2-2-2.1-3.8-4.5c0.6-1.7 1.3-2.8 2-3.2z"></path><path class="D" d="m450.9 143.5h-68.8c-3.8 0-6.9-3.1-6.9-6.9v-5.4c0-3.9 3.1-7 6.9-7h68.8c3.8 0 6.9 3.1 6.9 7v5.4c0 3.8-3.1 6.9-6.9 6.9z"></path><path fill-rule="evenodd" class="E" d="m382.4 231.2c0.2-12.8 6.4-24 15.8-31.2 6.8-5.1 15.3-8.1 24.4-8 17 0.3 31.3 11.1 36.8 26.2 1.3 3.6 2.1 7.4 2.3 11.4q0.1 1.3 0.1 2.6c-0.1 9-3.2 17.2-8.3 23.8-7.4 9.5-19 15.6-31.9 15.4-4.3-0.1-8.4-0.8-12.2-2.1-15.9-5.4-27.2-20.5-27-38.1zm30.2 28.7c2.8 1 5.9 1.5 9.1 1.6 9.7 0.1 18.4-4.4 23.9-11.6 3.8-4.9 6.2-11.1 6.2-17.8q0.1-1 0-2c-0.2-3-0.8-5.8-1.7-8.5-4.1-11.3-14.9-19.5-27.6-19.6-6.9-0.1-13.3 2.2-18.4 6.1-7.1 5.3-11.6 13.7-11.8 23.2-0.1 13.3 8.4 24.6 20.3 28.6z"></path><path class="F" d="m445.6 249.9l7.9 6.1c-7.4 9.5-19 15.6-31.9 15.4-4.3-0.1-8.4-0.8-12.2-2.1l3.2-9.4c2.8 1 5.9 1.5 9.1 1.6 9.7 0.1 18.4-4.4 23.9-11.6z"></path><path class="G" d="m451.8 230.1l9.9-0.5q0.1 1.3 0.1 2.6c-0.1 9-3.2 17.2-8.3 23.8l-7.9-6.1c3.8-4.9 6.2-11.1 6.2-17.8q0.1-1 0-2z"></path><path class="G" d="m451.8 230.1c-0.2-3-0.8-5.8-1.7-8.5l9.3-3.4c1.3 3.6 2.1 7.4 2.3 11.4z"></path><path class="H" d="m398.2 200c6.8-5.1 15.3-8.1 24.4-8 17 0.3 31.3 11.1 36.8 26.2l-9.3 3.4c-4.1-11.3-14.9-19.5-27.6-19.6-6.9-0.1-13.3 2.2-18.4 6.1z"></path><path class="a" d="m717.3 348.4h-25.7c-5.1 0-9.3-4.2-9.3-9.3v-25.7c0-5.1 4.2-9.2 9.3-9.2h25.7c5.1 0 9.3 4.1 9.3 9.2v25.7c0 5.1-4.2 9.3-9.3 9.3z"></path><path class="I" d="m703.1 336l-11.2-9.7c-0.9-0.8-1-2.2-0.2-3.1 0.8-1 2.2-1.1 3.1-0.3l7.9 6.9 11.2-12.5c0.8-0.9 2.2-1 3.1-0.2 1 0.8 1 2.2 0.2 3.1z"></path><path class="a" d="m717.3 405h-25.7c-5.1 0-9.3-4.1-9.3-9.2v-25.7c0-5.2 4.2-9.3 9.3-9.3h25.7c5.1 0 9.3 4.1 9.3 9.3v25.7c0 5.1-4.2 9.2-9.3 9.2z"></path><path class="I" d="m703.1 392.6l-11.2-9.7c-0.9-0.8-1-2.2-0.2-3.1 0.8-0.9 2.2-1 3.1-0.2l7.9 6.9 11.2-12.6c0.8-0.9 2.2-1 3.1-0.2 1 0.8 1 2.2 0.2 3.1z"></path><path class="a" d="m717.3 461.7h-25.7c-5.1 0-9.3-4.2-9.3-9.3v-25.7c0-5.1 4.2-9.3 9.3-9.3h25.7c5.1 0 9.3 4.2 9.3 9.3v25.7c0 5.1-4.2 9.3-9.3 9.3z"></path><path class="E" d="m500.8 235.7h-10.2v33.3h10.2z"></path><path class="g" d="m865.1 457.8c0 25.9-21 47.1-47.1 47.1-26.1 0-47.2-21.1-47.2-47.1 0-26 21.1-47.1 47.2-47.1 26 0 47.1 21.1 47.1 47.1z"></path><path class="E" d="m484.1 245.1h-10.2v23.9h10.2z"></path><path class="E" d="m517.4 220.2h-10.1v48.8h10.1z"></path><path class="J" d="m930.9 592.9h65.4v3.9h-65.4z"></path><path class="n" d="m987.5 783.4h-5.7v-176.5h5.7z"></path><path class="K" d="m895.7 591.8h45.4v5.5h-45.4z"></path><path class="L" d="m909.8 596.8h17.2v-52.3h-17.2z"></path><path class="o" d="m767.9 606.9h251.9v-10.1h-251.9z"></path><path class="M" d="m1068.1 536.1c0 0 2.8 38.6-4.8 43.2-4.7 2.9-23.6 12.7-23 14.5 0.5 1.9 10.6 16.3 10.6 16.3 0 0 36.2-23.8 37.4-31.3 1.2-7.4-1.8-56.6-6.7-58.9-3.8-1.7-5.7-0.3-10.4 3.2-6.6 4.9-3.1 13-3.1 13z"></path><path class="N" d="m1023.5 759.3c0 0 1.2 7.8 1.3 9 0.2 1.2 12.5-0.7 12.5-0.7l1-9.3c0 0-13.2-0.1-14.8 1z"></path><path class="O" d="m1024.7 767.3c0 0-3.9 4.7-7.7 6.8-3.8 2-9.8 2.9-12 5-1.7 1.5-5.9 8.1 9.8 8 15.8-0.2 23.4 0.9 25.1-1.6 1.7-2.6-2.5-18.7-2.5-18.7 0 0-3.7 1.3-12.7 0.5z"></path><path class="N" d="m944.2 759.4c0 0 1.1 7.8 1.3 9 0.1 1.2 12.5-0.7 12.5-0.7l1-9.3c0 0-13.3-0.1-14.8 1z"></path><path class="O" d="m945.3 767.4c0 0-3.9 4.7-7.7 6.8-3.8 2-17.8 3.7-20 5.8-1.6 1.6-4.3 7.7 17.9 7.2 15.7-0.5 23.3 0.9 25-1.6 1.7-2.6-2.4-18.7-2.4-18.7 0 0-3.5 1.4-12.8 0.5z"></path><path class="O" d="m1063.5 624.3c0 0-45 7.6-55.2 9.2-10.2 1.6-65.3 15.3-72.2 19.5-5.5 3.3 2.9 83.3 4.8 113.8h21.7l1.6-91.5c26.1 0.6 44.7-6.1 63.7-3.2 18.9 2.9 34.8 7 46.8-9.2 0 0 0.5-35.1-11.2-38.6z"></path><path class="O" d="m1019.1 766.9l21.2-1.3 2-90.3c11.3 0.3 15.1-0.4 24.2-1.5l17.1-39.8c-15 3-63 15.1-69.4 19-5.5 3.3 3 83.4 4.9 113.9z"></path><path class="i" d="m1042.8 455.5c0 0-16.5-4.6-22.8 8.2-6.3 12.9-3.5 37.2 4.8 39.4 8.4 2.3 20.3-0.3 23.8-8.3 3.4-8 6.2-19.3 5.4-26.6-0.9-7.4-6.8-11-11.2-12.7z"></path><path class="i" d="m1029.2 500.6c0 0 0.1 9.7-0.9 11.8-1.1 2.1 22.9 1.6 22.9 1.6 0 0-3.7-11.7-1.6-21.7 2.1-9.9-20.4 8.3-20.4 8.3z"></path><path class="P" d="m1050.9 488.6c0 0-1.3 2.6-7.5 2.2-6.2-0.4-14.5-7.9-17.1-8.6-2.6-0.7-2.8-2.2-2.8-2.2l-1.4 2.5-2.7 0.4c0 0 1.8-7.5-2.2-10.2-4-2.6 1.8-24 22.1-18.8 0 0 15.5 2.8 15.7 11.5 0.3 8.6-1.1 18.6-4.1 23.2z"></path><path class="J" d="m1027 512.2c0 0 0.1-4 1.9-4.4 1.8-0.4 18.9-2.7 21.1-1.9l0.9 5.3c0 0-4.2 2.6-23.9 1z"></path><path class="i" d="m1022 478.2c0.5-3.2 4.2-7 6.3-1.9 2.1 5.1-1.4 12.5-3.8 12.1-2.4-0.4-3.1-5.8-2.5-10.2z"></path><path class="m" d="m955.3 559.1q0 0 0 0-0.2 0 0 0z"></path><path class="P" d="m1047.6 457.8c0 0 20.1-0.9 3.5 30.5z"></path><path class="p" d="m1092.4 777.6l-1.5 4.2-63.2-19.6 3-8.5z"></path><path class="p" d="m1025.5 759.2h7.2v-68.8h-7.2z"></path><path class="Q" d="m1007.9 690.8h42.4v-4.1h-42.4z"></path><path class="p" d="m965.2 777.6l1.5 4.2 63.3-19.6-2.8-9.1z"></path><path class="p" d="m1009.8 781.3v4.9l20.2-24-2.8-9.1z"></path><path class="x" d="m959.3 783.4c0 3.3 2.6 5.9 5.9 5.9 3.3 0 5.9-2.6 5.9-5.9 0-3.2-2.6-5.9-5.9-5.9-3.3 0-5.9 2.7-5.9 5.9z"></path><path class="x" d="m1009.3 783.4c0 3.3 2.6 5.9 5.9 5.9 3.3 0 5.9-2.6 5.9-5.9 0-3.2-2.6-5.9-5.9-5.9-3.3 0-5.9 2.7-5.9 5.9z"></path><path class="x" d="m1086.5 783.4c0 3.3 2.7 5.9 5.9 5.9 3.3 0 5.9-2.6 5.9-5.9 0-3.2-2.6-5.9-5.9-5.9-3.2 0-5.9 2.7-5.9 5.9z"></path><path class="J" d="m986.2 686.7h85.3c4.2 0 7.6-3.4 7.6-7.5v-0.2c0-4.2-3.4-7.6-7.6-7.6h-85.3c-4.2 0-7.6 3.4-7.6 7.6v0.2c0 4.1 3.4 7.5 7.6 7.5z"></path><path class="n" d="m800.1 783.4h5.7v-176.5h-5.7z"></path><path class="R" d="m851.6 569.7h133.6c4.1 0 7.5-3.4 7.5-7.6v-89.7c0-4.2-3.4-7.6-7.5-7.6h-133.6c-4.1 0-7.5 3.4-7.5 7.6v89.7c0 4.2 3.4 7.6 7.5 7.6z"></path><path class="D" d="m849.9 553.2h137v-82.7h-137z"></path><path class="S" d="m849.9 477.1h137v-6.6h-137z"></path><path class="S" d="m859.6 548.1h7.2c2.6 0 4.7-2.1 4.7-4.6v-56.8c0-2.6-2.1-4.7-4.7-4.7h-7.2c-2.5 0-4.6 2.1-4.6 4.7v56.8c0 2.5 2.1 4.6 4.6 4.6z"></path><path class="S" d="m955.4 488.1h25.1c1.4 0 2.5-1.1 2.5-2.5v-1.1c0-1.4-1.1-2.5-2.5-2.5h-25.1c-1.4 0-2.5 1.1-2.5 2.5v1.1c0 1.4 1.1 2.5 2.5 2.5z"></path><path class="S" d="m958.1 549.8h19.7c2.9 0 5.2-2.3 5.2-5.2v-47.1c0-2.9-2.3-5.3-5.2-5.3h-19.7c-2.9 0-5.2 2.4-5.2 5.3v47.1c0 2.9 2.3 5.2 5.2 5.2z"></path><path class="T" d="m913.6 561c0 2.6 2.2 4.8 4.8 4.8 2.7 0 4.8-2.2 4.8-4.8 0-2.7-2.1-4.8-4.8-4.8-2.6 0-4.8 2.1-4.8 4.8z"></path><path class="U" d="m887.6 597v-1.9c0 0 2.7-11.6 21.2-11.6 18.6 0 18.2 13.5 18.2 13.5z"></path><path class="i" d="m927.2 585.2c0 0-4-0.3-5.5-1.2-1.5-0.9-10.3-6.8-12.4-5.9-2.1 1-15.9 5.2-15.4 7.2 0.5 2.1 1.8 1.9 2.7 1.5 1-0.4 11.1-2.5 11.9-2.1 0 0-9.8 3.6-9.9 6.2 0 2.6 2.1 3.3 3 4.3 1 1 2.1 3.4 4.6 3.6 2.6 0.2 15-4.1 17.5-4.3 2.6-0.2 7.3 0.1 7.6-0.3 0.3-0.4-4.1-9-4.1-9z"></path><path class="a" d="m1000.6 517.7c12.9-2.3 26.4-5.5 26.4-5.5l23.9-1c0 0 22 4.8 30.7 8.7 0.8 0.4 0.8 19.6 3 24.7l-7.1 15.1c0 0-4.2 30-5 43.3-0.4 6.1 1.1 59.2 1.1 59.2 0 0-2.2 1-18.5 2.8-16.4 1.8-57.2-0.6-57.4-2.6-0.3-1.9 7.9-71.8 8.2-75.4 0.6-5.6-1.6-31.3-1.6-31.3-3 4.2-10.9 22.8-19.1 31.7-4.8 5.3-28.6 8.5-33.1 8.6-9.8 0.3-27.6 2.3-28.1 1.3-0.4-0.5-1.6-15.8-0.5-16.2 1-0.3 34.1-2.2 42.6-6.7 3.1-1.7 12.4-21.9 12.4-21.9 0 0 15-31.7 22.1-34.8z"></path><path class="J" d="m1047.8 660.6h40.2c8 0 14.5-6.5 14.5-14.5v-66.9c0-8-6.5-14.5-14.5-14.5h-40.2c-8 0-14.6 6.5-14.6 14.5v66.9c0 8 6.6 14.5 14.6 14.5z"></path><path class="J" d="m1045.5 682.9c10.2 0 18.5-3.4 24.6-10.2 13.9-15.3 11.4-42.2 11.3-43.3-0.2-2.1-2.1-3.7-4.2-3.4-2.1 0.2-3.7 2-3.5 4.2 0.1 0.3 2.3 24.6-9.3 37.4-4.7 5.1-10.8 7.6-18.9 7.6-2.1 0-3.8 1.7-3.8 3.9 0 2.1 1.7 3.8 3.8 3.8z"></path><path class="g" d="m920.4 504.3c0 4.7-1.7 9.1-4.5 12.4q-1 1.2-2.2 2.2-0.3 0.3-0.7 0.6-0.4 0.3-0.8 0.6c-2.5 1.8-5.5 3-8.8 3.4q-0.8 0.1-1.7 0.1-0.3 0-0.7 0-0.9 0-1.8 0-1-0.1-2-0.3c-3-0.6-5.6-1.9-7.9-3.6q-1.1-0.8-2-1.8-0.2-0.1-0.3-0.3-0.7-0.7-1.3-1.5c-2.5-3.2-4-7.3-4-11.8 0-10.7 8.7-19.4 19.3-19.4 10.7 0 19.4 8.7 19.4 19.4z"></path><path class="y" d="m913.6 515l-1.4 5.1c-2.5 1.8-5.5 3-8.8 3.4q-0.8 0.1-1.7 0.1-0.3 0-0.7 0-0.9 0-1.8 0-1-0.1-2-0.3c-3-0.6-5.6-1.9-7.9-3.6-0.3-1.7-0.6-3.6-0.9-5.4 1.5-0.5 6-2 8.8-3q0.1 0 0.2 0 0.1-0.1 0.1-0.1 0.3-0.1 0.5-0.2 0.3-0.1 0.5-0.1c0.6-0.2 1-0.4 1.1-0.4q0 0 0 0 0.1 0 0.1 0l3.9 0.3h0.6 0.2q0 0 0.1 0c0.2 0.1 0.9 0.3 1.8 0.6q0 0 0 0c2.3 0.7 6 2 7.3 3.6z"></path><path class="z" d="m902.1 494.7c0 0 4.6 0.8 3.8 8-0.8 7.2-4.9 6.6-5.1 6.5-0.3 0-4.1 0.1-4.3-8.7 0 0-0.1-6.5 5.6-5.8z"></path><path class="z" d="m904.1 507.2c0 0-0.2 2.9 0.1 3.6 0.3 0.6-3.7 2.7-6.2 0.3 0 0 0.5-3.2 0.4-4.4-0.2-1.1 5.7 0.5 5.7 0.5z"></path><path class="z" d="m906 500.6c0 0 0.5-0.5 0.7 0.1 0.1 0.5-0.9 2.9-0.8 3 0 0-0.1 0.3-0.2 0.1-0.1-0.1 0.3-3.2 0.3-3.2z"></path><path class="z" d="m896.5 500.4c0 0-0.5-0.5-0.7 0-0.2 0.6 0.6 3 0.7 3.1 0 0 0.1 0.3 0.2 0.2 0.2-0.1-0.2-3.3-0.2-3.3z"></path><path class="A" d="m906.3 500c-0.2 1-0.3 1.7-0.3 1.7l-0.7 0.9c0 0 0-1.9-0.1-2.2 0-0.1-0.1-0.3-0.1-0.6-0.1-0.3-0.2-0.7-0.2-0.9-0.1-0.2-4-1.3-7.4 0.3 0 0 0 0.3 0 0.6 0 0.4 0 0.8-0.2 0.9-0.3 0.1-0.2 2.2-0.2 2.2l-0.5-0.6c0 0-0.2-1.1-0.3-2.4q0 0 0 0-0.1-0.4-0.1-0.9c-0.1-1.3 0-3.7 1.7-5 1.1-0.5 3-0.9 6 0 0 0 0.7 0 0.9 0.2 1.9 2.1 1.5 5.8 1.5 5.8z"></path><path class="B" d="m898.7 508.3c0 0 0.7 1 2.4 1 1.7-0.1 2.5-1 2.5-1 0 0-0.8 1.7-2.5 1.7-1.6 0-2.4-1.7-2.4-1.7z"></path><path class="z" d="m897.5 511.2c0 0 1.3 2.1 3.6 2.3 1.5 0.2 2.8-1.7 3.4-2.6 0 0-3.3-1.5-7 0.3z"></path><path class="v" d="m904.1 510.2c0 0-1 1.2-3 2.5l1.3 2 2.1-3.8z"></path><path class="v" d="m898.1 510.5c0 0 1.2 1.5 3 2.2l-1.3 2-2.4-3.4z"></path><path class="C" d="m901.1 512.7l1.1 1.7c0 0-1.1 0.6-2.2-0.1z"></path><path class="m" d="m914.9 514.7c0 0-1.2 4.2-1.2 4.2q-0.3 0.3-0.7 0.6-0.4 0.3-0.8 0.6c-2.5 1.8-5.5 3-8.8 3.4 0.3-6.7 1.1-12.6 1.1-12.6q0.9 0.2 1.8 0.5 0 0 0 0c2 0.5 6.7 2.1 8.6 3.3z"></path><path class="m" d="m897.2 523.3c-3-0.6-5.6-1.9-7.9-3.6q-1.1-0.8-2-1.8-0.2-0.1-0.3-0.3c-0.4-1.5-0.6-2.4-0.6-2.5 0 0 2.4-1.5 10.8-3.8q0 0 0 0c0 0.2 0 5.6 0 12z"></path><path class="C" d="m901.7 514.5c0 1.8 0 5.2 0 9.1q-0.3 0-0.7 0-0.9 0-1.8 0c0.4-4.9 1-7.9 1.3-9.1q0.1-0.5 0.1-0.5l1.2 0.1q-0.1 0.2-0.1 0.4z"></path><path class="m" d="m915.9 516.7q-1 1.2-2.2 2.2-0.3 0.3-0.7 0.6c0 0 1.9-4.8 1.9-4.8 0.5 0.3 0.7 1.5 1 2z"></path><path class="m" d="m887.3 517.9q-0.2-0.1-0.3-0.3-0.7-0.7-1.3-1.5 0.4-0.8 0.7-1z"></path><path class="V" d="m818 476.6c-1.3 0-2.4-1.1-2.4-2.4v-32.8c0-1.3 1.1-2.4 2.4-2.4 1.3 0 2.3 1.1 2.3 2.4v32.8c0 1.3-1 2.4-2.3 2.4z"></path><path class="V" d="m834.4 460.2h-32.9c-1.3 0-2.3-1.1-2.3-2.4 0-1.3 1-2.4 2.3-2.4h32.9c1.3 0 2.4 1.1 2.4 2.4 0 1.3-1.1 2.4-2.4 2.4z"></path></svg>